<svg xmlns="http://www.w3.org/2000/svg" version="1.1" xmlns:xlink="http://www.w3.org/1999/xlink" xmlns:svgjs="http://svgjs.dev/svgjs" width="68" height="40"><svg width="68" height="40" viewBox="0 0 68 40" fill="none" xmlns="http://www.w3.org/2000/svg">
<path d="M8.704 39.312C3.712 39.312 0.904 38.792 0.904 37.336C0.904 36.192 2.152 35.828 4.804 35.724C5.48 35.464 5.636 32.916 5.636 30.108V11.128C5.636 8.32 5.428 5.824 4.804 5.616C2.048 5.46 0.8 5.096 0.8 3.952C0.8 2.496 3.296 2.132 7.82 2.132H13.904H25.604C25.76 1.3 26.28 0.779999 27.164 0.779999C29.088 0.779999 31.012 6.864 31.012 10.608C31.012 12.376 30.388 13.52 29.348 13.52C28.36 13.52 27.892 12.324 27.112 9.62C26.748 8.216 26.332 7.384 25.864 6.76C25.188 5.928 21.6 5.616 17.388 5.616H13.02C11.98 5.772 11.824 8.112 11.824 11.648V19.188C15.828 19.188 20.56 19.188 21.288 18.2C21.392 15.444 21.496 14.196 22.692 14.196C24.148 14.196 24.772 17.368 24.824 20.904C24.824 24.7 24.148 27.768 22.692 27.768C21.496 27.768 21.34 26.572 21.288 23.556C20.612 22.62 15.828 22.568 11.824 22.568V30.108C11.824 32.916 11.98 35.516 12.656 35.724C15.88 35.828 17.18 36.192 17.18 37.336C17.18 38.792 14.268 39.312 8.704 39.312ZM51.1555 39.832C41.3795 39.832 33.0075 31.668 33.0075 20.696C33.0075 9.516 41.2235 1.3 51.4675 1.3C55.8355 1.3 59.7355 2.86 62.2835 4.784C62.4395 3.588 63.0115 2.756 63.8435 2.756C65.9235 2.756 67.1715 8.216 67.1715 11.908C67.1715 15.288 66.2355 16.588 65.1955 16.588C63.8955 16.588 63.4795 15.028 62.5955 12.064C61.2435 7.696 55.9915 4.94 51.5195 4.888C44.2395 4.888 39.5595 10.66 39.5595 18.616C39.5595 27.196 45.2795 35.308 53.5995 35.308C57.6555 35.308 61.3995 33.592 63.3755 30.316C64.4155 28.496 64.9355 26.26 66.0795 26.26C66.9635 26.26 67.4835 27.092 67.4835 28.704C67.4835 32.396 64.9355 38.324 62.8555 38.324C62.0755 38.324 61.5035 37.804 61.3475 36.92C58.9035 38.584 55.3675 39.832 51.1555 39.832Z" fill="#9F21FF"></path>
</svg><style>@media (prefers-color-scheme: light) { :root { filter: none; } }
@media (prefers-color-scheme: dark) { :root { filter: none; } }
</style></svg>